<svg width="1238" height="9" viewBox="0 0 1238 9" fill="none" xmlns="http://www.w3.org/2000/svg">
<path d="M5.1702 8H2L10.2557 1H13.4259L5.1702 8Z" fill="black"/>
<path d="M16.5961 8H13.4259L21.6817 1H24.8519L16.5961 8Z" fill="black"/>
<path d="M28.0221 8H24.8519L33.1076 1H36.2778L28.0221 8Z" fill="black"/>
<path d="M39.448 8H36.2778L44.5335 1H47.7037L39.448 8Z" fill="black"/>
<path d="M50.8739 8H47.7037L55.9594 1H59.1296L50.8739 8Z" fill="black"/>
<path d="M62.2998 8H59.1296L67.3854 1H70.5556L62.2998 8Z" fill="black"/>
<path d="M73.7258 8H70.5556L78.8113 1H81.9815L73.7258 8Z" fill="black"/>
<path d="M85.1517 8H81.9815L90.2372 1H93.4074L85.1517 8Z" fill="black"/>
<path d="M96.5776 8H93.4074L101.663 1H104.833L96.5776 8Z" fill="black"/>
<path d="M108.004 8H104.833L113.089 1H116.259L108.004 8Z" fill="black"/>
<path d="M119.429 8H116.259L124.515 1H127.685L119.429 8Z" fill="black"/>
<path d="M130.855 8H127.685L135.941 1H139.111L130.855 8Z" fill="black"/>
<path d="M142.281 8H139.111L147.367 1H150.537L142.281 8Z" fill="black"/>
<path d="M153.707 8H150.537L158.793 1H161.963L153.707 8Z" fill="black"/>
<path d="M165.133 8H161.963L170.219 1H173.389L165.133 8Z" fill="black"/>
<path d="M176.559 8H173.389L181.645 1H184.815L176.559 8Z" fill="black"/>
<path d="M187.985 8H184.815L193.071 1H196.241L187.985 8Z" fill="black"/>
<path d="M199.411 8H196.241L204.496 1H207.667L199.411 8Z" fill="black"/>
<path d="M210.837 8H207.667L215.922 1H219.093L210.837 8Z" fill="black"/>
<path d="M222.263 8H219.093L227.348 1H230.519L222.263 8Z" fill="black"/>
<path d="M233.689 8H230.519L238.774 1H241.944L233.689 8Z" fill="black"/>
<path d="M245.115 8H241.944L250.2 1H253.37L245.115 8Z" fill="black"/>
<path d="M256.541 8H253.37L261.626 1H264.796L256.541 8Z" fill="black"/>
<path d="M267.967 8H264.796L273.052 1H276.222L267.967 8Z" fill="black"/>
<path d="M279.392 8H276.222L284.478 1H287.648L279.392 8Z" fill="black"/>
<path d="M290.818 8H287.648L295.904 1H299.074L290.818 8Z" fill="black"/>
<path d="M302.244 8H299.074L307.33 1H310.5L302.244 8Z" fill="black"/>
<path d="M313.67 8H310.5L318.756 1H321.926L313.67 8Z" fill="black"/>
<path d="M325.096 8H321.926L330.182 1H333.352L325.096 8Z" fill="black"/>
<path d="M336.522 8H333.352L341.608 1H344.778L336.522 8Z" fill="black"/>
<path d="M347.948 8H344.778L353.034 1H356.204L347.948 8Z" fill="black"/>
<path d="M359.374 8H356.204L364.459 1H367.63L359.374 8Z" fill="black"/>
<path d="M370.8 8H367.63L375.885 1H379.056L370.8 8Z" fill="black"/>
<path d="M382.226 8H379.056L387.311 1H390.481L382.226 8Z" fill="black"/>
<path d="M393.652 8H390.481L398.737 1H401.907L393.652 8Z" fill="black"/>
<path d="M405.078 8H401.907L410.163 1H413.333L405.078 8Z" fill="black"/>
<path d="M416.504 8H413.333L421.589 1H424.759L416.504 8Z" fill="black"/>
<path d="M427.929 8H424.759L433.015 1H436.185L427.929 8Z" fill="black"/>
<path d="M439.355 8H436.185L444.441 1H447.611L439.355 8Z" fill="black"/>
<path d="M450.781 8H447.611L455.867 1H459.037L450.781 8Z" fill="black"/>
<path d="M462.207 8H459.037L467.293 1H470.463L462.207 8Z" fill="black"/>
<path d="M473.633 8H470.463L478.719 1H481.889L473.633 8Z" fill="black"/>
<path d="M485.059 8H481.889L490.145 1H493.315L485.059 8Z" fill="black"/>
<path d="M496.485 8H493.315L501.571 1H504.741L496.485 8Z" fill="black"/>
<path d="M507.911 8H504.741L512.996 1H516.167L507.911 8Z" fill="black"/>
<path d="M519.337 8H516.167L524.422 1H527.593L519.337 8Z" fill="black"/>
<path d="M530.763 8H527.593L535.848 1H539.019L530.763 8Z" fill="black"/>
<path d="M542.189 8H539.019L547.274 1H550.444L542.189 8Z" fill="black"/>
<path d="M553.615 8H550.444L558.7 1H561.87L553.615 8Z" fill="black"/>
<path d="M565.041 8H561.87L570.126 1H573.296L565.041 8Z" fill="black"/>
<path d="M576.466 8H573.296L581.552 1H584.722L576.466 8Z" fill="black"/>
<path d="M587.892 8H584.722L592.978 1H596.148L587.892 8Z" fill="black"/>
<path d="M599.318 8H596.148L604.404 1H607.574L599.318 8Z" fill="black"/>
<path d="M610.744 8H607.574L615.83 1H619L610.744 8Z" fill="black"/>
<path d="M622.17 8H619L627.256 1H630.426L622.17 8Z" fill="black"/>
<path d="M633.596 8H630.426L638.682 1H641.852L633.596 8Z" fill="black"/>
<path d="M645.022 8H641.852L650.108 1H653.278L645.022 8Z" fill="black"/>
<path d="M656.448 8H653.278L661.533 1H664.704L656.448 8Z" fill="black"/>
<path d="M667.874 8H664.704L672.959 1H676.13L667.874 8Z" fill="black"/>
<path d="M679.3 8H676.13L684.385 1H687.556L679.3 8Z" fill="black"/>
<path d="M690.726 8H687.556L695.811 1H698.981L690.726 8Z" fill="black"/>
<path d="M702.152 8H698.981L707.237 1H710.407L702.152 8Z" fill="black"/>
<path d="M713.578 8H710.407L718.663 1H721.833L713.578 8Z" fill="black"/>
<path d="M725.004 8H721.833L730.089 1H733.259L725.004 8Z" fill="black"/>
<path d="M736.429 8H733.259L741.515 1H744.685L736.429 8Z" fill="black"/>
<path d="M747.855 8H744.685L752.941 1H756.111L747.855 8Z" fill="black"/>
<path d="M759.281 8H756.111L764.367 1H767.537L759.281 8Z" fill="black"/>
<path d="M770.707 8H767.537L775.793 1H778.963L770.707 8Z" fill="black"/>
<path d="M782.133 8H778.963L787.219 1H790.389L782.133 8Z" fill="black"/>
<path d="M793.559 8H790.389L798.645 1H801.815L793.559 8Z" fill="black"/>
<path d="M804.985 8H801.815L810.071 1H813.241L804.985 8Z" fill="black"/>
<path d="M816.411 8H813.241L821.496 1H824.667L816.411 8Z" fill="black"/>
<path d="M827.837 8H824.667L832.922 1H836.093L827.837 8Z" fill="black"/>
<path d="M839.263 8H836.093L844.348 1H847.519L839.263 8Z" fill="black"/>
<path d="M850.689 8H847.519L855.774 1H858.944L850.689 8Z" fill="black"/>
<path d="M862.115 8H858.944L867.2 1H870.37L862.115 8Z" fill="black"/>
<path d="M873.541 8H870.37L878.626 1H881.796L873.541 8Z" fill="black"/>
<path d="M884.967 8H881.796L890.052 1H893.222L884.967 8Z" fill="black"/>
<path d="M896.392 8H893.222L901.478 1H904.648L896.392 8Z" fill="black"/>
<path d="M907.818 8H904.648L912.904 1H916.074L907.818 8Z" fill="black"/>
<path d="M919.244 8H916.074L924.33 1H927.5L919.244 8Z" fill="black"/>
<path d="M930.67 8H927.5L935.756 1H938.926L930.67 8Z" fill="black"/>
<path d="M942.096 8H938.926L947.182 1H950.352L942.096 8Z" fill="black"/>
<path d="M953.522 8H950.352L958.608 1H961.778L953.522 8Z" fill="black"/>
<path d="M964.948 8H961.778L970.033 1H973.204L964.948 8Z" fill="black"/>
<path d="M976.374 8H973.204L981.459 1H984.63L976.374 8Z" fill="black"/>
<path d="M987.8 8H984.63L992.885 1H996.056L987.8 8Z" fill="black"/>
<path d="M999.226 8H996.056L1004.31 1H1007.48L999.226 8Z" fill="black"/>
<path d="M1010.65 8H1007.48L1015.74 1H1018.91L1010.65 8Z" fill="black"/>
<path d="M1022.08 8H1018.91L1027.16 1H1030.33L1022.08 8Z" fill="black"/>
<path d="M1033.5 8H1030.33L1038.59 1H1041.76L1033.5 8Z" fill="black"/>
<path d="M1044.93 8H1041.76L1050.01 1H1053.19L1044.93 8Z" fill="black"/>
<path d="M1056.36 8H1053.19L1061.44 1H1064.61L1056.36 8Z" fill="black"/>
<path d="M1067.78 8H1064.61L1072.87 1H1076.04L1067.78 8Z" fill="black"/>
<path d="M1079.21 8H1076.04L1084.29 1H1087.46L1079.21 8Z" fill="black"/>
<path d="M1090.63 8H1087.46L1095.72 1H1098.89L1090.63 8Z" fill="black"/>
<path d="M1102.06 8H1098.89L1107.14 1H1110.31L1102.06 8Z" fill="black"/>
<path d="M1113.49 8H1110.31L1118.57 1H1121.74L1113.49 8Z" fill="black"/>
<path d="M1124.91 8H1121.74L1130 1H1133.17L1124.91 8Z" fill="black"/>
<path d="M1136.34 8H1133.17L1141.42 1H1144.59L1136.34 8Z" fill="black"/>
<path d="M1147.76 8H1144.59L1152.85 1H1156.02L1147.76 8Z" fill="black"/>
<path d="M1159.19 8H1156.02L1164.27 1H1167.44L1159.19 8Z" fill="black"/>
<path d="M1170.61 8H1167.44L1175.7 1H1178.87L1170.61 8Z" fill="black"/>
<path d="M1182.04 8H1178.87L1187.13 1H1190.3L1182.04 8Z" fill="black"/>
<path d="M1193.47 8H1190.3L1198.55 1H1201.72L1193.47 8Z" fill="black"/>
<path d="M1204.89 8H1201.72L1209.98 1H1213.15L1204.89 8Z" fill="black"/>
<path d="M1216.32 8H1213.15L1221.4 1H1224.57L1216.32 8Z" fill="black"/>
<path d="M1227.74 8H1224.57L1232.83 1H1236L1227.74 8Z" fill="black"/>
<path d="M5.1702 8H2L10.2557 1H13.4259L5.1702 8Z" stroke="black"/>
<path d="M16.5961 8H13.4259L21.6817 1H24.8519L16.5961 8Z" stroke="black"/>
<path d="M28.0221 8H24.8519L33.1076 1H36.2778L28.0221 8Z" stroke="black"/>
<path d="M39.448 8H36.2778L44.5335 1H47.7037L39.448 8Z" stroke="black"/>
<path d="M50.8739 8H47.7037L55.9594 1H59.1296L50.8739 8Z" stroke="black"/>
<path d="M62.2998 8H59.1296L67.3854 1H70.5556L62.2998 8Z" stroke="black"/>
<path d="M73.7258 8H70.5556L78.8113 1H81.9815L73.7258 8Z" stroke="black"/>
<path d="M85.1517 8H81.9815L90.2372 1H93.4074L85.1517 8Z" stroke="black"/>
<path d="M96.5776 8H93.4074L101.663 1H104.833L96.5776 8Z" stroke="black"/>
<path d="M108.004 8H104.833L113.089 1H116.259L108.004 8Z" stroke="black"/>
<path d="M119.429 8H116.259L124.515 1H127.685L119.429 8Z" stroke="black"/>
<path d="M130.855 8H127.685L135.941 1H139.111L130.855 8Z" stroke="black"/>
<path d="M142.281 8H139.111L147.367 1H150.537L142.281 8Z" stroke="black"/>
<path d="M153.707 8H150.537L158.793 1H161.963L153.707 8Z" stroke="black"/>
<path d="M165.133 8H161.963L170.219 1H173.389L165.133 8Z" stroke="black"/>
<path d="M176.559 8H173.389L181.645 1H184.815L176.559 8Z" stroke="black"/>
<path d="M187.985 8H184.815L193.071 1H196.241L187.985 8Z" stroke="black"/>
<path d="M199.411 8H196.241L204.496 1H207.667L199.411 8Z" stroke="black"/>
<path d="M210.837 8H207.667L215.922 1H219.093L210.837 8Z" stroke="black"/>
<path d="M222.263 8H219.093L227.348 1H230.519L222.263 8Z" stroke="black"/>
<path d="M233.689 8H230.519L238.774 1H241.944L233.689 8Z" stroke="black"/>
<path d="M245.115 8H241.944L250.2 1H253.37L245.115 8Z" stroke="black"/>
<path d="M256.541 8H253.37L261.626 1H264.796L256.541 8Z" stroke="black"/>
<path d="M267.967 8H264.796L273.052 1H276.222L267.967 8Z" stroke="black"/>
<path d="M279.392 8H276.222L284.478 1H287.648L279.392 8Z" stroke="black"/>
<path d="M290.818 8H287.648L295.904 1H299.074L290.818 8Z" stroke="black"/>
<path d="M302.244 8H299.074L307.33 1H310.5L302.244 8Z" stroke="black"/>
<path d="M313.67 8H310.5L318.756 1H321.926L313.67 8Z" stroke="black"/>
<path d="M325.096 8H321.926L330.182 1H333.352L325.096 8Z" stroke="black"/>
<path d="M336.522 8H333.352L341.608 1H344.778L336.522 8Z" stroke="black"/>
<path d="M347.948 8H344.778L353.034 1H356.204L347.948 8Z" stroke="black"/>
<path d="M359.374 8H356.204L364.459 1H367.63L359.374 8Z" stroke="black"/>
<path d="M370.8 8H367.63L375.885 1H379.056L370.8 8Z" stroke="black"/>
<path d="M382.226 8H379.056L387.311 1H390.481L382.226 8Z" stroke="black"/>
<path d="M393.652 8H390.481L398.737 1H401.907L393.652 8Z" stroke="black"/>
<path d="M405.078 8H401.907L410.163 1H413.333L405.078 8Z" stroke="black"/>
<path d="M416.504 8H413.333L421.589 1H424.759L416.504 8Z" stroke="black"/>
<path d="M427.929 8H424.759L433.015 1H436.185L427.929 8Z" stroke="black"/>
<path d="M439.355 8H436.185L444.441 1H447.611L439.355 8Z" stroke="black"/>
<path d="M450.781 8H447.611L455.867 1H459.037L450.781 8Z" stroke="black"/>
<path d="M462.207 8H459.037L467.293 1H470.463L462.207 8Z" stroke="black"/>
<path d="M473.633 8H470.463L478.719 1H481.889L473.633 8Z" stroke="black"/>
<path d="M485.059 8H481.889L490.145 1H493.315L485.059 8Z" stroke="black"/>
<path d="M496.485 8H493.315L501.571 1H504.741L496.485 8Z" stroke="black"/>
<path d="M507.911 8H504.741L512.996 1H516.167L507.911 8Z" stroke="black"/>
<path d="M519.337 8H516.167L524.422 1H527.593L519.337 8Z" stroke="black"/>
<path d="M530.763 8H527.593L535.848 1H539.019L530.763 8Z" stroke="black"/>
<path d="M542.189 8H539.019L547.274 1H550.444L542.189 8Z" stroke="black"/>
<path d="M553.615 8H550.444L558.7 1H561.87L553.615 8Z" stroke="black"/>
<path d="M565.041 8H561.87L570.126 1H573.296L565.041 8Z" stroke="black"/>
<path d="M576.466 8H573.296L581.552 1H584.722L576.466 8Z" stroke="black"/>
<path d="M587.892 8H584.722L592.978 1H596.148L587.892 8Z" stroke="black"/>
<path d="M599.318 8H596.148L604.404 1H607.574L599.318 8Z" stroke="black"/>
<path d="M610.744 8H607.574L615.83 1H619L610.744 8Z" stroke="black"/>
<path d="M622.17 8H619L627.256 1H630.426L622.17 8Z" stroke="black"/>
<path d="M633.596 8H630.426L638.682 1H641.852L633.596 8Z" stroke="black"/>
<path d="M645.022 8H641.852L650.108 1H653.278L645.022 8Z" stroke="black"/>
<path d="M656.448 8H653.278L661.533 1H664.704L656.448 8Z" stroke="black"/>
<path d="M667.874 8H664.704L672.959 1H676.13L667.874 8Z" stroke="black"/>
<path d="M679.3 8H676.13L684.385 1H687.556L679.3 8Z" stroke="black"/>
<path d="M690.726 8H687.556L695.811 1H698.981L690.726 8Z" stroke="black"/>
<path d="M702.152 8H698.981L707.237 1H710.407L702.152 8Z" stroke="black"/>
<path d="M713.578 8H710.407L718.663 1H721.833L713.578 8Z" stroke="black"/>
<path d="M725.004 8H721.833L730.089 1H733.259L725.004 8Z" stroke="black"/>
<path d="M736.429 8H733.259L741.515 1H744.685L736.429 8Z" stroke="black"/>
<path d="M747.855 8H744.685L752.941 1H756.111L747.855 8Z" stroke="black"/>
<path d="M759.281 8H756.111L764.367 1H767.537L759.281 8Z" stroke="black"/>
<path d="M770.707 8H767.537L775.793 1H778.963L770.707 8Z" stroke="black"/>
<path d="M782.133 8H778.963L787.219 1H790.389L782.133 8Z" stroke="black"/>
<path d="M793.559 8H790.389L798.645 1H801.815L793.559 8Z" stroke="black"/>
<path d="M804.985 8H801.815L810.071 1H813.241L804.985 8Z" stroke="black"/>
<path d="M816.411 8H813.241L821.496 1H824.667L816.411 8Z" stroke="black"/>
<path d="M827.837 8H824.667L832.922 1H836.093L827.837 8Z" stroke="black"/>
<path d="M839.263 8H836.093L844.348 1H847.519L839.263 8Z" stroke="black"/>
<path d="M850.689 8H847.519L855.774 1H858.944L850.689 8Z" stroke="black"/>
<path d="M862.115 8H858.944L867.2 1H870.37L862.115 8Z" stroke="black"/>
<path d="M873.541 8H870.37L878.626 1H881.796L873.541 8Z" stroke="black"/>
<path d="M884.967 8H881.796L890.052 1H893.222L884.967 8Z" stroke="black"/>
<path d="M896.392 8H893.222L901.478 1H904.648L896.392 8Z" stroke="black"/>
<path d="M907.818 8H904.648L912.904 1H916.074L907.818 8Z" stroke="black"/>
<path d="M919.244 8H916.074L924.33 1H927.5L919.244 8Z" stroke="black"/>
<path d="M930.67 8H927.5L935.756 1H938.926L930.67 8Z" stroke="black"/>
<path d="M942.096 8H938.926L947.182 1H950.352L942.096 8Z" stroke="black"/>
<path d="M953.522 8H950.352L958.608 1H961.778L953.522 8Z" stroke="black"/>
<path d="M964.948 8H961.778L970.033 1H973.204L964.948 8Z" stroke="black"/>
<path d="M976.374 8H973.204L981.459 1H984.63L976.374 8Z" stroke="black"/>
<path d="M987.8 8H984.63L992.885 1H996.056L987.8 8Z" stroke="black"/>
<path d="M999.226 8H996.056L1004.31 1H1007.48L999.226 8Z" stroke="black"/>
<path d="M1010.65 8H1007.48L1015.74 1H1018.91L1010.65 8Z" stroke="black"/>
<path d="M1022.08 8H1018.91L1027.16 1H1030.33L1022.08 8Z" stroke="black"/>
<path d="M1033.5 8H1030.33L1038.59 1H1041.76L1033.5 8Z" stroke="black"/>
<path d="M1044.93 8H1041.76L1050.01 1H1053.19L1044.93 8Z" stroke="black"/>
<path d="M1056.36 8H1053.19L1061.44 1H1064.61L1056.36 8Z" stroke="black"/>
<path d="M1067.78 8H1064.61L1072.87 1H1076.04L1067.78 8Z" stroke="black"/>
<path d="M1079.21 8H1076.04L1084.29 1H1087.46L1079.21 8Z" stroke="black"/>
<path d="M1090.63 8H1087.46L1095.72 1H1098.89L1090.63 8Z" stroke="black"/>
<path d="M1102.06 8H1098.89L1107.14 1H1110.31L1102.06 8Z" stroke="black"/>
<path d="M1113.49 8H1110.31L1118.57 1H1121.74L1113.49 8Z" stroke="black"/>
<path d="M1124.91 8H1121.74L1130 1H1133.17L1124.91 8Z" stroke="black"/>
<path d="M1136.34 8H1133.17L1141.42 1H1144.59L1136.34 8Z" stroke="black"/>
<path d="M1147.76 8H1144.59L1152.85 1H1156.02L1147.76 8Z" stroke="black"/>
<path d="M1159.19 8H1156.02L1164.27 1H1167.44L1159.19 8Z" stroke="black"/>
<path d="M1170.61 8H1167.44L1175.7 1H1178.87L1170.61 8Z" stroke="black"/>
<path d="M1182.04 8H1178.87L1187.13 1H1190.3L1182.04 8Z" stroke="black"/>
<path d="M1193.47 8H1190.3L1198.55 1H1201.72L1193.47 8Z" stroke="black"/>
<path d="M1204.89 8H1201.72L1209.98 1H1213.15L1204.89 8Z" stroke="black"/>
<path d="M1216.32 8H1213.15L1221.4 1H1224.57L1216.32 8Z" stroke="black"/>
<path d="M1227.74 8H1224.57L1232.83 1H1236L1227.74 8Z" stroke="black"/>
</svg>
